<svg xmlns="http://www.w3.org/2000/svg" viewBox="0 0 234.47 60.58"><defs><style>.cls-1{fill:#0b7db5}.cls-2{font-size:36px;fill:#063a72;font-family:MyriadPro-Cond,Myriad Pro}.cls-3,.cls-4{letter-spacing:-.01em}.cls-5,.cls-6{fill:#b74e00;font-family:MyriadPro-BoldIt,Myriad Pro;font-weight:700;font-style:italic}.cls-6{letter-spacing:-.06em}.cls-7{font-size:21px;fill:#666;font-family:MyriadPro-Regular,Myriad Pro}</style></defs><title>profitstars-bank-logo</title><g id="Layer_2" data-name="Layer 2"><g id="Content"><g id="Logo"><path class="cls-1" d="M26.73 57.84a26.73 26.73 0 1 1 26.74-26.73 26.79 26.79 0 0 1-26.74 26.73zm0-52.34a25.61 25.61 0 1 0 25.61 25.61A25.6 25.6 0 0 0 26.73 5.5z"/><path class="cls-1" d="M38.08 40.88h-3.26a.52.52 0 0 1-.56-.56V27.07a.56.56 0 1 1 1.12 0v12.69h2.14V27.07a.56.56 0 0 1 1.12 0v13.25a.53.53 0 0 1-.56.56zm-6.52 0h-3.25a.53.53 0 0 1-.57-.56V27.07a.57.57 0 0 1 1.13 0v12.69H31V27.07a.56.56 0 1 1 1.12 0v13.25a.59.59 0 0 1-.56.56zm-6.51 0h-3.26a.52.52 0 0 1-.56-.56V27.07a.56.56 0 1 1 1.12 0v12.69h2.14V27.07a.56.56 0 1 1 1.12 0v13.25c-.11.34-.34.56-.56.56zm-6.63 0h-3.26a.53.53 0 0 1-.56-.56V27.07a.57.57 0 0 1 1.13 0v12.69h2.13V27.07a.56.56 0 0 1 1.12 0v13.25a.52.52 0 0 1-.56.56zm19.88 3.26H15.05a.56.56 0 1 1 0-1.12H38.3a.52.52 0 0 1 .56.56c-.11.34-.33.56-.56.56zm0-19.54H15.05a.57.57 0 0 1 0-1.13H38.3a.53.53 0 0 1 .56.57c-.11.33-.33.56-.56.56z"/><path class="cls-1" d="M15.05 24.6a.6.6 0 0 1-.45-.23.59.59 0 0 1 .23-.78l11.79-7.19a.51.51 0 0 1 .56 0l11.46 7.19a.58.58 0 0 1-.56 1L27 17.52 15.5 24.6z"/><text class="cls-2" transform="matrix(1.08 0 0 1 65.15 30.13)"><tspan class="cls-3">P</tspan><tspan class="cls-4" x="14.15" y="0">r</tspan><tspan x="22.57" y="0">ofit</tspan><tspan class="cls-5" x="60.59" y="0">S</tspan><tspan class="cls-6" x="78.95" y="0">T</tspan><tspan class="cls-5" x="95.72" y="0">ARS</tspan><tspan class="cls-7"><tspan x="0" y="25.2">Bank</tspan></tspan></text></g></g></g></svg>