<svg xmlns="http://www.w3.org/2000/svg" viewBox="0 0 234.47 60.58"><defs><style>.cls-1{fill:#0b7db5;}.cls-2{font-size:36px;fill:#063a72;font-family:MyriadPro-Cond, Myriad Pro;}.cls-3{letter-spacing:-0.01em;}.cls-4{letter-spacing:-0.01em;}.cls-5,.cls-6{fill:#b74e00;font-family:MyriadPro-BoldIt, Myriad Pro;font-weight:700;font-style:italic;}.cls-6{letter-spacing:-0.06em;}.cls-7{font-size:21px;fill:#666;font-family:MyriadPro-Regular, Myriad Pro;}</style></defs><title>profitstars-bank-logo</title><g id="Layer_2" data-name="Layer 2"><g id="Content"><g id="Logo"><path class="cls-1" d="M26.73,57.84A26.73,26.73,0,1,1,53.47,31.11,26.79,26.79,0,0,1,26.73,57.84Zm0-52.34A25.61,25.61,0,1,0,52.34,31.11,25.6,25.6,0,0,0,26.73,5.5Z"/><path class="cls-1" d="M38.08,40.88H34.82a.52.52,0,0,1-.56-.56V27.07a.56.56,0,1,1,1.12,0V39.76h2.14V27.07a.56.56,0,0,1,1.12,0V40.32A.53.53,0,0,1,38.08,40.88Z"/><path class="cls-1" d="M31.56,40.88H28.31a.53.53,0,0,1-.57-.56V27.07a.57.57,0,0,1,1.13,0V39.76H31V27.07a.56.56,0,1,1,1.12,0V40.32A.59.59,0,0,1,31.56,40.88Z"/><path class="cls-1" d="M25.05,40.88H21.79a.52.52,0,0,1-.56-.56V27.07a.56.56,0,1,1,1.12,0V39.76h2.14V27.07a.56.56,0,1,1,1.12,0V40.32C25.5,40.66,25.27,40.88,25.05,40.88Z"/><path class="cls-1" d="M18.42,40.88H15.16a.53.53,0,0,1-.56-.56V27.07a.57.57,0,0,1,1.13,0V39.76h2.13V27.07a.56.56,0,0,1,1.12,0V40.32A.52.52,0,0,1,18.42,40.88Z"/><path class="cls-1" d="M38.3,44.14H15.05a.56.56,0,1,1,0-1.12H38.3a.52.52,0,0,1,.56.56C38.75,43.92,38.53,44.14,38.3,44.14Z"/><path class="cls-1" d="M38.3,24.6H15.05a.57.57,0,0,1,0-1.13H38.3a.53.53,0,0,1,.56.57C38.75,24.37,38.53,24.6,38.3,24.6Z"/><path class="cls-1" d="M15.05,24.6a.6.6,0,0,1-.45-.23.59.59,0,0,1,.23-.78L26.62,16.4a.51.51,0,0,1,.56,0l11.46,7.19a.58.58,0,0,1-.56,1L27,17.52,15.5,24.6Z"/><text class="cls-2" transform="translate(65.15 30.13) scale(1.08 1)"><tspan class="cls-3">P</tspan><tspan class="cls-4" x="14.15" y="0">r</tspan><tspan x="22.57" y="0">ofit</tspan><tspan class="cls-5" x="60.59" y="0">S</tspan><tspan class="cls-6" x="78.95" y="0">T</tspan><tspan class="cls-5" x="95.72" y="0">ARS</tspan><tspan class="cls-7"><tspan x="0" y="25.2">Bank</tspan></tspan></text></g></g></g></svg>