<svg xmlns="http://www.w3.org/2000/svg" viewBox="0 0 38.28 39.45"><defs><style>.cls-1{fill:#8bbc13;}</style></defs><title>contact</title><g id="Layer_2" data-name="Layer 2"><g id="Layer_1-2" data-name="Layer 1"><path class="cls-1" d="M140.12,102.15a.64.64,0,0,0-.74-.07l-36.94,16.59a.65.65,0,0,0-.44.6.64.64,0,0,0,.45.58l14.35,6a.92.92,0,0,1,.42.43L123.09,141a.64.64,0,0,0,.58.47h0a.64.64,0,0,0,.58-.45l16-38.11A.65.65,0,0,0,140.12,102.15Zm-35.26,17.31h0l-.15-.39Zm30.61-13.74-17.85,18.45a.4.4,0,0,1-.36.08l-12-5Zm-16.63,19.67L136.66,107l-13,31.08-4.88-12.27A.45.45,0,0,1,118.84,125.39Z" transform="translate(-102 -102)"/></g></g></svg>