<?xml version="1.0" encoding="utf-8"?>
<!-- Generator: Adobe Illustrator 22.0.1, SVG Export Plug-In . SVG Version: 6.00 Build 0)  -->
<svg version="1.1" id="Layer_1" xmlns="http://www.w3.org/2000/svg" xmlns:xlink="http://www.w3.org/1999/xlink" x="0px" y="0px"
	 viewBox="0 0 1000 1000" style="enable-background:new 0 0 1000 1000;" xml:space="preserve">
<style type="text/css">
	.st0{fill:#767676;}
</style>
<g>
	<path class="st0" d="M480,443.7c14.2,13.8,38.2,14.7,53.6,1.9l243.8-201.9c13.5-11.2,7.9-31.2-9.8-35.5L129.7,54.7
		C110.5,50,96.4,70.9,109.9,84L480,443.7z"/>
	<path class="st0" d="M964.2,150.2L563.4,482.3c-15.4,12.8-16.4,34.3-2.1,48.1l225,218.7c12.4,12.1,34.8,7.1,39.6-8.7L997,168
		C1002.1,150.7,978.9,138.1,964.2,150.2z"/>
	<path class="st0" d="M520.4,557c-14.2-13.8-38.2-14.7-53.6-1.9L223,757c-13.5,11.2-7.9,31.2,9.8,35.5l637.9,153.6
		c19.3,4.6,33.3-16.2,19.8-29.4L520.4,557z"/>
	<path class="st0" d="M439.2,470.4l-225-218.7c-12.4-12.1-34.8-7.1-39.6,8.8L3.4,832.8c-5.2,17.3,18.1,29.9,32.7,17.8l400.9-332.1
		C452.5,505.7,453.4,484.2,439.2,470.4z"/>
</g>
</svg>
